<?xml version="1.0" encoding="UTF-8" standalone="no"?>
<!DOCTYPE svg PUBLIC "-//W3C//DTD SVG 1.1//EN" "http://www.w3.org/Graphics/SVG/1.1/DTD/svg11.dtd">
<svg xmlns="http://www.w3.org/2000/svg" version="1.1" viewBox="0.00 0.00 656.00 656.00">
<path fill="#317bff" d="
  M 9.46 236.50
  C 9.46 197.56 27.37 164.63 66.07 153.10
  C 76.87 149.88 87.01 149.01 99.50 149.01
  Q 329.50 148.98 559.50 149.00
  C 599.25 149.01 633.40 168.26 643.12 209.08
  C 645.79 220.32 646.46 229.97 646.47 242.80
  Q 646.55 331.77 646.42 420.75
  C 646.37 452.82 633.34 483.23 602.97 497.78
  Q 583.81 506.97 563.68 506.97
  Q 329.97 507.03 96.25 507.00
  C 60.19 507.00 28.75 490.79 15.70 456.56
  C 10.59 443.15 9.54 428.97 9.53 412.95
  Q 9.46 324.72 9.46 236.50
  Z
  M 168.48 237.25
  C 167.06 228.57 160.01 228.22 152.92 228.01
  Q 130.30 227.35 107.70 228.07
  C 93.86 228.50 89.10 234.46 87.44 247.74
  C 85.93 259.80 94.11 266.80 105.75 267.76
  C 121.50 269.06 141.28 267.30 155.05 268.09
  C 165.73 268.70 168.64 262.37 168.92 252.84
  Q 169.25 241.92 168.48 237.25
  Z
  M 233.80 267.96
  C 240.34 267.55 247.12 267.21 248.02 258.81
  Q 249.16 248.07 247.91 238.43
  C 247.01 231.55 244.05 228.85 237.24 228.34
  Q 227.35 227.60 220.27 228.17
  C 213.24 228.74 209.76 230.78 208.97 237.99
  C 208.20 245.14 205.70 265.82 215.24 267.30
  Q 223.57 268.59 233.80 267.96
  Z
  M 288.61 260.77
  C 289.62 266.77 295.58 267.43 300.41 267.84
  C 307.78 268.46 326.06 270.27 327.49 260.00
  Q 328.95 249.53 327.44 237.24
  Q 326.50 229.55 318.78 228.51
  C 312.03 227.61 295.44 226.24 290.73 231.78
  C 286.16 237.14 287.49 254.18 288.61 260.77
  Z
  M 368.67 261.08
  C 369.93 269.79 385.68 268.24 391.69 268.01
  C 399.10 267.74 405.65 267.61 407.27 259.79
  C 408.29 254.88 409.69 235.33 403.92 230.74
  C 398.78 226.65 383.45 227.48 377.18 228.33
  Q 369.35 229.39 368.41 237.17
  Q 366.96 249.19 368.67 261.08
  Z
  M 478.69 267.60
  C 485.53 266.28 486.61 262.29 487.23 256.19
  Q 488.25 246.15 486.62 236.17
  C 485.73 230.76 482.16 228.75 477.00 228.28
  Q 465.67 227.24 456.46 228.62
  C 449.99 229.58 448.02 233.68 447.43 239.94
  Q 446.65 248.16 447.29 256.38
  C 448.13 267.18 453.51 267.57 463.36 268.00
  C 468.03 268.20 474.13 268.48 478.69 267.60
  Z
  M 527.53 259.48
  C 528.67 270.44 545.22 268.30 553.25 267.94
  C 560.51 267.61 565.83 266.57 566.75 258.25
  C 567.65 250.01 569.82 230.88 558.52 228.71
  C 552.97 227.64 532.51 225.77 529.29 232.41
  C 525.65 239.93 526.82 252.60 527.53 259.48
  Z
  M 92.69 345.31
  Q 95.86 347.51 99.80 348.00
  C 105.00 348.63 120.37 349.16 124.45 345.68
  C 130.44 340.56 129.14 325.00 128.38 317.31
  Q 127.60 309.41 119.57 308.48
  Q 108.10 307.15 98.00 308.54
  Q 90.29 309.60 89.26 317.50
  C 88.43 323.84 87.00 341.36 92.69 345.31
  Z
  M 175.29 346.94
  C 181.65 349.07 198.11 349.21 203.41 346.20
  C 210.54 342.15 209.38 325.33 208.17 317.46
  Q 206.93 309.40 198.82 308.42
  C 192.54 307.66 178.82 306.73 173.31 309.85
  C 167.05 313.41 168.24 327.98 168.65 334.13
  C 169.03 339.77 168.88 344.78 175.29 346.94
  Z
  M 280.00 347.35
  C 290.40 345.29 288.49 325.31 287.87 318.00
  Q 287.14 309.28 278.72 308.34
  Q 267.86 307.12 257.02 308.76
  Q 249.58 309.88 248.54 317.49
  C 247.43 325.59 245.17 345.14 256.24 347.47
  Q 267.46 349.84 280.00 347.35
  Z
  M 339.51 348.02
  C 347.58 348.49 365.15 350.47 367.17 339.75
  C 368.53 332.53 369.55 320.86 366.35 313.32
  C 363.63 306.88 348.47 307.51 342.71 307.90
  C 335.26 308.39 329.28 309.01 328.24 317.22
  Q 327.49 323.11 327.68 330.13
  C 327.96 340.13 327.84 347.34 339.51 348.02
  Z
  M 412.19 345.81
  C 415.92 348.16 419.61 348.10 425.04 348.23
  Q 448.63 348.83 472.20 348.05
  C 484.72 347.64 489.59 338.70 489.52 327.01
  C 489.46 316.59 481.55 309.87 471.80 308.49
  C 460.22 306.85 446.18 307.72 426.20 307.76
  C 415.54 307.79 407.62 308.76 407.20 321.01
  C 406.98 327.63 405.77 341.78 412.19 345.81
  Z
  M 531.40 345.61
  C 536.60 349.53 554.66 349.12 561.35 346.52
  C 568.37 343.80 567.72 329.01 567.33 322.98
  C 566.85 315.79 566.06 309.50 558.27 308.28
  Q 551.24 307.18 539.94 307.91
  C 530.60 308.51 527.76 310.79 527.23 320.50
  C 526.89 326.84 525.78 341.38 531.40 345.61
  Z
  M 376.94 427.79
  Q 381.16 427.81 393.06 427.57
  Q 405.88 427.31 407.59 415.50
  C 409.56 401.88 409.40 386.82 391.25 386.93
  Q 278.99 387.67 185.75 386.95
  C 180.64 386.91 173.53 388.00 170.86 392.91
  C 167.46 399.13 167.81 409.93 168.87 416.55
  C 170.59 427.28 178.79 427.67 187.89 427.64
  Q 282.42 427.36 376.94 427.79
  Z
  M 91.73 423.64
  C 96.55 428.78 110.71 427.83 117.34 427.24
  C 122.86 426.76 127.34 425.21 128.20 419.42
  C 129.07 413.54 130.08 398.71 127.24 392.74
  C 124.00 385.95 108.18 386.78 101.42 387.55
  C 95.19 388.27 90.59 389.99 89.43 396.42
  C 88.80 399.91 87.41 421.42 91.14 423.21
  Q 91.48 423.37 91.73 423.64
  Z
  M 447.34 402.01
  C 446.99 409.61 445.15 424.93 454.49 426.56
  Q 466.52 428.67 479.61 426.77
  C 483.05 426.27 486.05 423.93 486.68 420.68
  C 488.07 413.61 488.78 398.65 484.89 391.19
  C 482.12 385.89 464.20 387.17 458.73 387.73
  C 449.27 388.69 447.73 393.33 447.34 402.01
  Z
  M 527.60 418.83
  C 528.03 423.44 531.75 426.71 536.19 427.12
  Q 545.12 427.94 555.51 427.44
  Q 566.21 426.93 566.99 415.74
  C 567.47 408.76 568.45 397.99 565.23 392.40
  C 561.35 385.67 544.60 386.82 537.08 387.61
  Q 529.35 388.42 528.01 395.25
  Q 526.26 404.17 527.60 418.83
  Z"
/>
</svg>
